<?xml version="1.0" encoding="UTF-8"?>
<svg version="1.1" xmlns="http://www.w3.org/2000/svg" width="512" height="512">
<path d="M0 0 C168.96 0 337.92 0 512 0 C512 168.96 512 337.92 512 512 C343.04 512 174.08 512 0 512 C0 343.04 0 174.08 0 0 Z " fill="#FEFDFE" transform="translate(0,0)"/>
<path d="M0 0 C1.84877487 1.45549672 3.58617651 2.96872706 5.3125 4.56640625 C7.16529272 6.14042229 9.08212008 7.28863251 11.1875 8.5 C14.92913451 10.78130725 17.06589122 12.97060671 19 17 C19.25 20.875 19.25 20.875 19 24 C17.515 24.495 17.515 24.495 16 25 C15.29875 24.525625 14.5975 24.05125 13.875 23.5625 C9.9116022 21.40847946 6.42842524 21.35556498 2 22 C-0.5189267 23.31763329 -0.5189267 23.31763329 -2 25 C-1.34 24.67 -0.68 24.34 0 24 C4.12399989 23.4043949 8.15126759 23.15311478 12.00390625 24.91796875 C21.2821376 31.99599311 25.31449128 45.95235472 27 57 C28.24275555 70.25398794 26.93475291 82.56709334 18.24609375 93.1328125 C8.42791238 103.56586987 -5.55300295 110.02203527 -19.7890625 111.23828125 C-29.47299868 111.4917176 -39.49974781 109.5133769 -47 103 C-48.375 100.25 -48.375 100.25 -49 98 C-49.56847656 98.28875 -50.13695312 98.5775 -50.72265625 98.875 C-55.63063668 101.23476355 -59.45842738 102.90680279 -65 102 C-74.61690519 98.41101064 -80.64791321 88.28518616 -84.875 79.4375 C-88.87574226 70.41360356 -90.54209954 61.44988499 -90.4375 51.625 C-90.42992676 50.62057861 -90.42235352 49.61615723 -90.41455078 48.58129883 C-90.04055824 31.68202253 -83.11201034 18.68343151 -71 7 C-50.16026399 -11.06694201 -23.740384 -15.30678906 0 0 Z " fill="#AD5139" transform="translate(283,185)"/>
<path d="M0 0 C5.75012401 2.97307548 8.83914936 8.08560277 11 14 C15.55320636 28.35886147 19.44996398 43.01709187 12.60546875 57.28125 C5.91632041 68.60885888 -5.51808446 76.18732141 -18.18359375 79.5859375 C-28.2415884 81.06464406 -40.30819328 81.91199466 -49 76 C-49.92039063 75.50886719 -49.92039063 75.50886719 -50.859375 75.0078125 C-53.48106576 73.3602362 -54.83320057 71.64153628 -55.609375 68.65625 C-56.66923179 54.47047451 -44.28316337 43.05835506 -35.74707031 33.02490234 C-34.15857414 31.18379177 -32.55089916 29.36306808 -30.9296875 27.55078125 C-25.47340586 21.39963981 -21.20640173 15.42773907 -17.72314453 7.93505859 C-13.99399721 0.15712276 -8.15316986 -1.54145868 0 0 Z " fill="#F6F0E2" transform="translate(291,212)"/>
<path d="M0 0 C2.22193049 1.65264706 4.29258951 3.24175936 6.203125 5.24609375 C6.203125 5.90609375 6.203125 6.56609375 6.203125 7.24609375 C5.0275 7.59671875 3.851875 7.94734375 2.640625 8.30859375 C-2.9647299 10.38575541 -6.36510683 14.39863871 -10.16796875 18.8515625 C-12.30788681 20.68357868 -14.36052124 21.23692968 -17.046875 22.05859375 C-23.94309838 24.47592073 -28.18785646 27.24259248 -31.671875 33.74609375 C-32.88588007 37.51818094 -33.00077305 41.17719379 -33.171875 45.12109375 C-33.57355056 52.7611269 -35.69938339 58.25701646 -40.37109375 64.2734375 C-44.610267 67.7207523 -49.81341606 69.24901908 -54.88671875 71.15820312 C-60.74682978 73.47573533 -64.08457366 75.58509125 -66.84375 81.484375 C-67.19179687 82.51111328 -67.19179687 82.51111328 -67.546875 83.55859375 C-67.959375 84.77546875 -68.371875 85.99234375 -68.796875 87.24609375 C-72.30241078 84.13597632 -74.06962691 81.06632408 -75.984375 76.80859375 C-76.74814453 75.13990234 -76.74814453 75.13990234 -77.52734375 73.4375 C-81.60113931 63.19660471 -80.26733161 53.70506514 -76.34765625 43.61328125 C-69.59545552 28.95233156 -57.39035289 18.60883302 -42.3671875 12.95703125 C-37.9079332 11.72362049 -33.40539004 11.42132246 -28.796875 11.24609375 C-28.796875 10.58609375 -28.796875 9.92609375 -28.796875 9.24609375 C-44.70449465 10.72024384 -57.31178062 14.37423924 -68.796875 26.24609375 C-71.47378146 29.75507593 -73.71593739 33.35802611 -75.796875 37.24609375 C-76.15523437 37.91511719 -76.51359375 38.58414063 -76.8828125 39.2734375 C-77.55368038 40.58132212 -78.18318868 41.91042351 -78.796875 43.24609375 C-79.126875 43.24609375 -79.456875 43.24609375 -79.796875 43.24609375 C-80.19967156 37.37134393 -79.11270846 33.65231647 -76.484375 28.55859375 C-76.12972168 27.86451416 -75.77506836 27.17043457 -75.40966797 26.45532227 C-67.14665132 11.06700196 -53.78068933 1.70026268 -37.796875 -4.75390625 C-25.8632564 -8.18863588 -10.46856249 -6.5647829 0 0 Z " fill="#E9B781" transform="translate(276.796875,184.75390625)"/>
<path d="M0 0 C0.09688221 5.44693314 0.12862175 10.63904667 -1 16 C0.11375 15.34 1.2275 14.68 2.375 14 C5.75 12 5.75 12 8 12 C6.25311754 19.186362 4.60792994 24.74099569 -1.66796875 29.1796875 C-5.27116421 31.35910374 -8.97099723 32.82077968 -13 34 C-10.78791707 34 -9.02045593 33.53823285 -6.875 33 C-2.46696018 31.98550785 1.48861045 31.83594947 6 32 C3.27496373 37.45007255 -0.90988725 41.41840513 -6.3125 44.18359375 C-10.55789051 45.47325453 -14.65196793 44.93066545 -19.0390625 44.6796875 C-22.11684057 44.6888596 -22.11684057 44.6888596 -23.8984375 47.0078125 C-24.26195312 47.66523438 -24.62546875 48.32265625 -25 49 C-23.515 48.505 -23.515 48.505 -22 48 C-19.73154071 47.87882764 -17.45916106 47.82459617 -15.1875 47.8125 C-13.38345703 47.79123047 -13.38345703 47.79123047 -11.54296875 47.76953125 C-8.01916575 47.99875328 -5.27870472 48.72969021 -2 50 C-4.44077876 55.81442061 -9.73360737 59.39761871 -15.27734375 62.1171875 C-24.05613411 65.35716285 -31.44212806 64.39887112 -40 61 C-39.835 60.401875 -39.67 59.80375 -39.5 59.1875 C-38.77498866 56.01557539 -38.96694502 54.09916494 -40 51 C-40.74466015 38.79902981 -39.85124204 31.83140765 -31.62109375 22.50390625 C-30 21 -30 21 -28 21 C-27.01 23.31 -26.02 25.62 -25 28 C-24.34 28 -23.68 28 -23 28 C-23.06960938 27.24976563 -23.13921875 26.49953125 -23.2109375 25.7265625 C-23.64859244 17.4528 -21.92030503 12.61898177 -17 6 C-16.34 6.33 -15.68 6.66 -15 7 C-14.3671875 9.50390625 -14.3671875 9.50390625 -13.875 12.5625 C-13.70742188 13.57441406 -13.53984375 14.58632812 -13.3671875 15.62890625 C-13.24601562 16.41136719 -13.12484375 17.19382813 -13 18 C-12.79375 16.845 -12.5875 15.69 -12.375 14.5 C-11.02725403 9.05084004 -6.46223117 0 0 0 Z " fill="#AE5740" transform="translate(290,223)"/>
<path d="M0 0 C3.47761511 1.91970261 5.61439934 4.21127137 7.375 7.8125 C7.684375 8.8953125 7.684375 8.8953125 8 10 C7.45085937 9.84144531 6.90171875 9.68289062 6.3359375 9.51953125 C0.57647681 8.23858096 -5.11207702 8.07320145 -10.4375 10.6875 C-14.76095423 14.58915382 -17.46604167 18.69681304 -19.99121094 23.87304688 C-23.82496154 31.70829651 -27.90889741 37.59310917 -34.02734375 43.83203125 C-43.36724009 53.49301604 -57.21881159 68.48498061 -58.625 82.3125 C-58.74875 83.529375 -58.8725 84.74625 -59 86 C-63.97917591 88.04273884 -68.67664145 88.82350298 -74 88 C-76.87029869 86.20606332 -78.49131638 85.01736724 -80 82 C-80.50921186 75.88945765 -80.08852244 72.86202669 -76 68 C-71.98822652 64.27269773 -68.14792789 62.83404763 -63.0625 61.1875 C-55.05049247 58.37973467 -51.2507282 55.50145641 -47.421875 47.84375 C-45.3607926 42.92645672 -45.2436841 37.84852454 -44.91601562 32.58398438 C-44.36520764 26.0132346 -42.14614095 22.25619946 -37.5625 17.4375 C-34.50586342 14.96717478 -31.19509117 13.94862327 -27.5 12.6875 C-21.88488289 10.67982476 -19.40916351 8.7651923 -16.2421875 3.80859375 C-12.33192088 -1.88465608 -6.02130178 -1.76653576 0 0 Z " fill="#F7F2E6" transform="translate(291,195)"/>
<path d="M0 0 C0.66 0.33 1.32 0.66 2 1 C2.6328125 3.50390625 2.6328125 3.50390625 3.125 6.5625 C3.29257812 7.57441406 3.46015625 8.58632812 3.6328125 9.62890625 C3.75398438 10.41136719 3.87515625 11.19382813 4 12 C4.33 10.02 4.66 8.04 5 6 C5.33 6 5.66 6 6 6 C7.16926011 11.66360365 8.00353615 16.74064208 5.6015625 22.1484375 C3.54507633 25.24535937 1.3526213 28.12199857 -1 31 C-1.73347656 31.95003906 -2.46695312 32.90007812 -3.22265625 33.87890625 C-8.06575239 40.02032799 -13.35415157 45.59440044 -19 51 C-22.18063901 48.0959383 -22.93634189 46.04301365 -23.203125 41.671875 C-23.33500646 30.63779274 -22.06735583 24.94300327 -14.62109375 16.50390625 C-13 15 -13 15 -11 15 C-10.01 17.31 -9.02 19.62 -8 22 C-7.34 22 -6.68 22 -6 22 C-6.06960938 21.24976563 -6.13921875 20.49953125 -6.2109375 19.7265625 C-6.64859244 11.4528 -4.92030503 6.61898177 0 0 Z " fill="#EFDECC" transform="translate(273,229)"/>
<path d="M0 0 C9.30044992 7.02700661 13.32620296 21.05603682 15.0078125 32.078125 C16.25056805 45.33211294 14.94256541 57.64521834 6.25390625 68.2109375 C-3.56427512 78.64399487 -17.54519045 85.10016027 -31.78125 86.31640625 C-41.46518618 86.5698426 -51.49193531 84.5915019 -58.9921875 78.078125 C-60.3671875 75.328125 -60.3671875 75.328125 -60.9921875 73.078125 C-61.56066406 73.366875 -62.12914062 73.655625 -62.71484375 73.953125 C-67.63320035 76.31787742 -71.43050657 77.90207773 -76.9921875 77.078125 C-79.51440297 75.92851009 -81.65812453 74.60241102 -83.9921875 73.078125 C-83.9921875 72.418125 -83.9921875 71.758125 -83.9921875 71.078125 C-82.5071875 70.583125 -82.5071875 70.583125 -80.9921875 70.078125 C-80.0021875 70.738125 -79.0121875 71.398125 -77.9921875 72.078125 C-72.97207689 72.64228981 -67.92205242 72.08937934 -62.9921875 71.078125 C-62.9921875 68.438125 -62.9921875 65.798125 -62.9921875 63.078125 C-62.6621875 63.078125 -62.3321875 63.078125 -61.9921875 63.078125 C-61.9921875 65.718125 -61.9921875 68.358125 -61.9921875 71.078125 C-61.3321875 71.078125 -60.6721875 71.078125 -59.9921875 71.078125 C-59.9921875 68.768125 -59.9921875 66.458125 -59.9921875 64.078125 C-59.6621875 64.078125 -59.3321875 64.078125 -58.9921875 64.078125 C-59.0128125 64.65820312 -59.0334375 65.23828125 -59.0546875 65.8359375 C-58.95789325 69.50201974 -58.83957405 72.11343912 -56.35546875 74.94140625 C-49.53558785 80.17647673 -43.16662858 81.44880484 -34.7421875 81.390625 C-33.89462891 81.38498535 -33.04707031 81.3793457 -32.17382812 81.37353516 C-19.60280947 81.12955497 -7.93362484 76.41104853 1.4453125 67.84375 C9.10885475 59.18394726 11.4210328 50.29851293 11.265625 38.96484375 C10.89680324 33.40457634 9.62138768 28.38947663 8.0078125 23.078125 C7.79125 22.19253906 7.5746875 21.30695313 7.3515625 20.39453125 C5.49969826 13.15241932 2.32669906 7.29071604 -3.9921875 3.078125 C-6.3711404 2.79873101 -6.3711404 2.79873101 -8.9296875 2.890625 C-9.78433594 2.89707031 -10.63898438 2.90351563 -11.51953125 2.91015625 C-13.80439418 3.06536811 -15.79841555 3.44188023 -17.9921875 4.078125 C-16.9921875 1.078125 -16.9921875 1.078125 -15.0546875 -0.109375 C-10.02840507 -1.4428785 -4.8684778 -2.25286424 0 0 Z " fill="#B55741" transform="translate(294.9921875,209.921875)"/>
<path d="M0 0 C3.05279832 6.61439637 3.8619894 12.72346608 3 20 C2.34 20.66 1.68 21.32 1 22 C0.93941406 21.19175781 0.87882812 20.38351562 0.81640625 19.55078125 C0.69072266 17.94783203 0.69072266 17.94783203 0.5625 16.3125 C0.48128906 15.25675781 0.40007812 14.20101563 0.31640625 13.11328125 C0.03548319 10.34913703 -0.40156852 7.71054259 -1 5 C-1.66 5 -2.32 5 -3 5 C-2.96334229 5.69561035 -2.92668457 6.3912207 -2.88891602 7.10791016 C-2.742817 10.27981753 -2.65219155 13.45101728 -2.5625 16.625 C-2.50384766 17.71941406 -2.44519531 18.81382812 -2.38476562 19.94140625 C-2.21475106 27.95637882 -2.21475106 27.95637882 -4.58935547 31.11230469 C-6.32673213 32.60148468 -8.0219188 33.85501307 -10 35 C-13.20059002 28.34379286 -12.94047073 19.93319646 -11.5703125 12.74609375 C-10.01511717 8.60850618 -4.85752462 0 0 0 Z " fill="#AF5F48" transform="translate(262,244)"/>
<path d="M0 0 C-2.44077876 5.81442061 -7.73360737 9.39761871 -13.27734375 12.1171875 C-18.36183466 13.99371314 -23.60271681 14.83451969 -29 14 C-29.99 13.34 -30.98 12.68 -32 12 C-31.34 12 -30.68 12 -30 12 C-30.33 10.68 -30.66 9.36 -31 8 C-25.64878069 6.56663769 -20.50808397 5.59015185 -15 5 C-19.62 5 -24.24 5 -29 5 C-22.87429287 0.0994343 -19.59005608 -0.15749655 -12 -0.625 C-11.2884375 -0.6765625 -10.576875 -0.728125 -9.84375 -0.78125 C-6.37955603 -1.00099365 -3.30794588 -1.15433528 0 0 Z " fill="#AB5C45" transform="translate(288,273)"/>
<path d="M0 0 C0.33 0 0.66 0 1 0 C1 2.64 1 5.28 1 8 C1.66 8 2.32 8 3 8 C3 5.69 3 3.38 3 1 C3.33 1 3.66 1 4 1 C3.979375 1.58007812 3.95875 2.16015625 3.9375 2.7578125 C4.03429425 6.42389474 4.15261345 9.03531412 6.63671875 11.86328125 C14.53343363 17.92495 21.69829222 18.27317103 31.375 18.125 C32.49261719 18.11597656 33.61023438 18.10695313 34.76171875 18.09765625 C37.50803462 18.07418346 40.25390472 18.04134728 43 18 C43 18.99 43 19.98 43 21 C30.48108441 24.33837749 19.7391698 23.73746438 7.984375 18.01953125 C4.51274842 15.95509312 3.07217135 13.85981685 2 10 C1.43152344 10.28875 0.86304688 10.5775 0.27734375 10.875 C-4.64101285 13.23975242 -8.43831907 14.82395273 -14 14 C-16.52221547 12.85038509 -18.66593703 11.52428602 -21 10 C-21 9.34 -21 8.68 -21 8 C-20.01 7.67 -19.02 7.34 -18 7 C-17.01 7.66 -16.02 8.32 -15 9 C-9.97988939 9.56416481 -4.92986492 9.01125434 0 8 C0 5.36 0 2.72 0 0 Z " fill="#B86349" transform="translate(232,273)"/>
<path d="M0 0 C10.47289236 -0.3696315 10.47289236 -0.3696315 12.8828125 1.3203125 C14.60907947 3.91574886 13.56501193 6.04938216 13 9 C13.66 9.66 14.32 10.32 15 11 C14.8125 13.5 14.8125 13.5 14 16 C9.43362969 19.04424687 5.43284541 18.12783166 0 18 C0 12.06 0 6.12 0 0 Z " fill="#653328" transform="translate(233,317)"/>
<path d="M0 0 C1.65 0 3.3 0 5 0 C6.32 2.97 7.64 5.94 9 9 C11.6465335 6.3534665 12.59941997 3.43778736 14 0 C15.32 0 16.64 0 18 0 C18.89604368 6.04829486 19.11269443 11.8894576 19 18 C17.68 18 16.36 18 15 18 C14.67 15.36 14.34 12.72 14 10 C13.01 11.98 12.02 13.96 11 16 C10.01 16 9.02 16 8 16 C7.01 14.02 6.02 12.04 5 10 C4.67 12.64 4.34 15.28 4 18 C2.68 18 1.36 18 0 18 C0 12.06 0 6.12 0 0 Z " fill="#6F3D36" transform="translate(207,317)"/>
<path d="M0 0 C1.5675 -0.061875 3.135 -0.12375 4.75 -0.1875 C6.07257813 -0.23970703 6.07257813 -0.23970703 7.421875 -0.29296875 C10.4984863 0.05664617 11.80955505 0.8398377 14 3 C14.40959154 6.20846702 14.43666496 8.19944757 12.875 11.0625 C11.69460607 13.10070585 11.69460607 13.10070585 12.875 15.75 C13.24625 16.4925 13.6175 17.235 14 18 C11.18127263 17.61121002 10.22804402 17.29189635 8.4375 15 C7.963125 14.34 7.48875 13.68 7 13 C6.01 12.67 5.02 12.34 4 12 C4 13.98 4 15.96 4 18 C2.68 17.67 1.36 17.34 0 17 C0 11.39 0 5.78 0 0 Z " fill="#663229" transform="translate(165,317)"/>
<path d="M0 0 C1.60031344 3.20062687 0.03173691 5.72271806 -1 9 C-0.01 9.33 0.98 9.66 2 10 C0.906875 9.9175 -0.18625 9.835 -1.3125 9.75 C-5.03442858 9.58896039 -5.03442858 9.58896039 -6.9375 12 C-7.288125 12.66 -7.63875 13.32 -8 14 C-7.01 13.67 -6.02 13.34 -5 13 C-2.64807607 12.87974705 -0.29246469 12.82467665 2.0625 12.8125 C3.93615234 12.79123047 3.93615234 12.79123047 5.84765625 12.76953125 C9 13 9 13 11 15 C9.92621094 15.03738281 8.85242188 15.07476562 7.74609375 15.11328125 C6.3098638 15.17899112 4.87366738 15.24543668 3.4375 15.3125 C2.73302734 15.33505859 2.02855469 15.35761719 1.30273438 15.38085938 C0.25375977 15.4340332 0.25375977 15.4340332 -0.81640625 15.48828125 C-1.45006104 15.51446533 -2.08371582 15.54064941 -2.73657227 15.56762695 C-5.89374576 16.08687343 -5.89374576 16.08687343 -12 19 C-5.4 19 1.2 19 8 19 C8 19.33 8 19.66 8 20 C0.08 20.99 -7.84 21.98 -16 23 C-15.67 24.32 -15.34 25.64 -15 27 C-17.64 26.67 -20.28 26.34 -23 26 C-22.8125 24.1875 -22.8125 24.1875 -22 22 C-20.33787066 20.99247639 -18.67046647 19.99363954 -17 19 C-10.5642606 13.34995231 -5.19425742 6.7794259 0 0 Z " fill="#A7503C" transform="translate(273,258)"/>
<path d="M0 0 C0.66 0.33 1.32 0.66 2 1 C2.54665234 3.40527028 2.8211429 5.54884475 3 8 C3.07734375 9.01449219 3.1546875 10.02898437 3.234375 11.07421875 C3.54479676 18.49847252 2.86192819 23.25250632 -2 29 C-4.96760486 26.29044774 -5.85940674 24.26889864 -6.30859375 20.21484375 C-6.64022476 11.78337652 -5.09828623 6.72184762 0 0 Z " fill="#B05E46" transform="translate(273,229)"/>
<path d="M0 0 C-2.79595065 5.5919013 -7.09624763 9.24246567 -12.375 12.4375 C-16.33486601 13.28604272 -20.03425083 12.63935825 -24 12 C-24 9 -24 9 -22 7 C-21.319375 6.175 -20.63875 5.35 -19.9375 4.5 C-14.21152705 -0.37316847 -7.24040284 -0.26328738 0 0 Z " fill="#AF5B44" transform="translate(296,255)"/>
<path d="M0 0 C0 3.63 0 7.26 0 11 C1.11375 10.34 2.2275 9.68 3.375 9 C6.75 7 6.75 7 9 7 C7.97448721 10.07653838 7.19203004 10.80796996 5 13 C4.67 13.99 4.34 14.98 4 16 C3.34 16 2.68 16 2 16 C1.773125 16.5775 1.54625 17.155 1.3125 17.75 C-0.38050483 20.652294 -2.18146859 22.18808695 -5 24 C-6.32 23.67 -7.64 23.34 -9 23 C-7.35 20.69 -5.7 18.38 -4 16 C-4.66 15.67 -5.32 15.34 -6 15 C-8 13 -8 13 -8.4375 10.25 C-7.83204968 5.75236904 -6.14884825 4.22382083 -3 1 C-1 0 -1 0 0 0 Z " fill="#A8543F" transform="translate(289,228)"/>
<path d="M0 0 C4.39718646 1.09929662 4.79997334 1.55450729 7.25 5.0625 C8.03117187 6.16271484 8.03117187 6.16271484 8.828125 7.28515625 C9.21484375 7.85105469 9.6015625 8.41695313 10 9 C10.33 6.03 10.66 3.06 11 0 C12.32 0 13.64 0 15 0 C15 5.94 15 11.88 15 18 C10.4467788 16.8616947 9.91490488 16.07612012 7.25 12.4375 C6.32960938 11.19806641 6.32960938 11.19806641 5.390625 9.93359375 C4.93171875 9.29550781 4.4728125 8.65742188 4 8 C3.67 11.3 3.34 14.6 3 18 C2.01 18 1.02 18 0 18 C0 12.06 0 6.12 0 0 Z " fill="#6A3A2E" transform="translate(350,317)"/>
<path d="M0 0 C4.29 0 8.58 0 13 0 C12.67 1.32 12.34 2.64 12 4 C9.36 4 6.72 4 4 4 C4 4.99 4 5.98 4 7 C6.31 7 8.62 7 11 7 C11 8.32 11 9.64 11 11 C8.69 11 6.38 11 4 11 C4 11.99 4 12.98 4 14 C6.64 14 9.28 14 12 14 C12.33 15.32 12.66 16.64 13 18 C8.71 18 4.42 18 0 18 C0 12.06 0 6.12 0 0 Z " fill="#6B3E37" transform="translate(310,317)"/>
<path d="M0 0 C2.5 0.25 2.5 0.25 4.5 2.25 C4.1730244 4.86580479 3.67960932 6.89078137 2.5 9.25 C4.15 9.58 5.8 9.91 7.5 10.25 C6.84 11.9 6.18 13.55 5.5 15.25 C6.16 15.25 6.82 15.25 7.5 15.25 C7.5 16.24 7.5 17.23 7.5 18.25 C6.695625 18.064375 5.89125 17.87875 5.0625 17.6875 C4.216875 17.543125 3.37125 17.39875 2.5 17.25 C2.17 17.58 1.84 17.91 1.5 18.25 C-1.33359542 18.5482732 -2.93785378 18.60602594 -5.375 17.0625 C-6.5 15.25 -6.5 15.25 -6.25 12.75 C-5.69717158 10.90723859 -5.10839041 9.07517122 -4.5 7.25 C-4.520625 6.404375 -4.54125 5.55875 -4.5625 4.6875 C-4.47250787 1.17780696 -3.44659207 0.34465921 0 0 Z " fill="#541C15" transform="translate(267.5,316.75)"/>
<path d="M0 0 C0.14657004 4.03983663 0.21379799 7.65890124 -2.6015625 10.76953125 C-3.99313409 11.87365465 -5.39343 12.96684286 -6.80078125 14.05078125 C-12.34517291 18.96490458 -15.92926284 26.31663088 -19 33 C-19.33 33 -19.66 33 -20 33 C-20.42468348 27.04670972 -19.24369069 23.33159416 -16.5625 18.1875 C-16.20776611 17.49333984 -15.85303223 16.79917969 -15.48754883 16.08398438 C-6.92099773 0 -6.92099773 0 0 0 Z " fill="#E3AD7E" transform="translate(217,195)"/>
<path d="M0 0 C1.588125 -0.061875 3.17625 -0.12375 4.8125 -0.1875 C6.15248047 -0.23970703 6.15248047 -0.23970703 7.51953125 -0.29296875 C10.41647515 0.04918998 11.22555028 0.75393573 13 3 C12.34 3 11.68 3 11 3 C10.67 3.99 10.34 4.98 10 6 C9.67 5.34 9.34 4.68 9 4 C6.47266765 3.34444881 6.47266765 3.34444881 4 3 C4 4.65 4 6.3 4 8 C5.65 8 7.3 8 9 8 C9.33 8.66 9.66 9.32 10 10 C8.02 10 6.04 10 4 10 C4 11.32 4 12.64 4 14 C6.31 14 8.62 14 11 14 C11 12.68 11 11.36 11 10 C12.32 10.33 13.64 10.66 15 11 C14.6875 13.375 14.6875 13.375 14 16 C9.43362969 19.04424687 5.43284541 18.12783166 0 18 C0 12.06 0 6.12 0 0 Z " fill="#622B23" transform="translate(289,317)"/>
<path d="M0 0 C1.796875 0.0703125 1.796875 0.0703125 4 1 C5.29263816 3.31844734 6.29169071 5.4254441 7.25 7.875 C7.518125 8.51308594 7.78625 9.15117187 8.0625 9.80859375 C9.24194665 12.69101695 10 14.85851645 10 18 C8.68 18 7.36 18 6 18 C5.67 17.01 5.34 16.02 5 15 C2.69 15 0.38 15 -2 15 C-2.33 15.99 -2.66 16.98 -3 18 C-4.32 18 -5.64 18 -7 18 C-5.26375242 11.5811453 -3.14819255 5.86215164 0 0 Z " fill="#7C534C" transform="translate(334,317)"/>
<path d="M0 0 C1.32 0 2.64 0 4 0 C4.33 4.29 4.66 8.58 5 13 C6.65 13 8.3 13 10 13 C10.33 8.71 10.66 4.42 11 0 C12.32 0 13.64 0 15 0 C15.10823773 2.24893954 15.18569645 4.49937575 15.25 6.75 C15.29640625 8.00296875 15.3428125 9.2559375 15.390625 10.546875 C15 14 15 14 13.16796875 16.41796875 C11 18 11 18 8.0625 18.5625 C5 18 5 18 2.125 16.3125 C-1.1789229 11.16226724 -0.39240655 5.95585939 0 0 Z " fill="#5C2A21" transform="translate(185,317)"/>
<path d="M0 0 C0.33 0 0.66 0 1 0 C1.56250491 6.75005887 -0.11669837 11.27759511 -4.26171875 16.62890625 C-10.63166308 23.03228861 -20.66177718 25.22059239 -29 28 C-29 26.68 -29 25.36 -29 24 C-22.65592179 21.28417633 -16.42227741 18.6451103 -9.7421875 16.87109375 C-7.34111393 15.67055697 -7.02188177 14.46675558 -6 12 C-4 8 -2 4 0 0 Z " fill="#A94D34" transform="translate(244,234)"/>
<path d="M0 0 C2.475 0.99 2.475 0.99 5 2 C4.34 4.31 3.68 6.62 3 9 C1.68 8.67 0.36 8.34 -1 8 C-0.67 8.99 -0.34 9.98 0 11 C-0.66 11.66 -1.32 12.32 -2 13 C-2.39764263 14.98821313 -2.73775349 16.98944339 -3 19 C-4.32 19 -5.64 19 -7 19 C-7.66 18.34 -8.32 17.68 -9 17 C-9.99 17.33 -10.98 17.66 -12 18 C-10.32537838 10.74330633 -5.26413461 5.07095536 0 0 Z " fill="#E3AC7A" transform="translate(213,211)"/>
<path d="M0 0 C0.99 0.66 1.98 1.32 3 2 C2.67 2.99 2.34 3.98 2 5 C0.906875 4.79375 -0.18625 4.5875 -1.3125 4.375 C-5.0838401 3.59653475 -5.0838401 3.59653475 -8 6 C-7.67 8.31 -7.34 10.62 -7 13 C-4.03 13 -1.06 13 2 13 C2.33 13.99 2.66 14.98 3 16 C-0.41540279 18.10178633 -3.02251415 18.56821226 -7 18 C-10.51695718 15.42089807 -11.79287553 13.68229237 -13.0625 9.5 C-12.98656644 5.24772053 -12.0047581 3.91890787 -9 1 C-5.98131566 -0.50934217 -3.32702771 -0.17510672 0 0 Z " fill="#612E24" transform="translate(156,317)"/>
<path d="M0 0 C3.05279832 6.61439637 3.8619894 12.72346608 3 20 C2.34 20.66 1.68 21.32 1 22 C0.93941406 21.19175781 0.87882812 20.38351562 0.81640625 19.55078125 C0.69072266 17.94783203 0.69072266 17.94783203 0.5625 16.3125 C0.48128906 15.25675781 0.40007812 14.20101563 0.31640625 13.11328125 C0.03548319 10.34913703 -0.40156852 7.71054259 -1 5 C-1.66 5 -2.32 5 -3 5 C-3 12.59 -3 20.18 -3 28 C-3.66 28 -4.32 28 -5 28 C-5.33 22.06 -5.66 16.12 -6 10 C-6.99 11.32 -7.98 12.64 -9 14 C-9.75 12.375 -9.75 12.375 -10 10 C-4.375 0 -4.375 0 0 0 Z " fill="#A8563E" transform="translate(262,244)"/>
<path d="M0 0 C5.48845286 4.14683105 8.79784998 10.67992706 11.0078125 17.078125 C10.7093232 20.13764035 10.22010536 20.86583214 8.0078125 23.078125 C7.78738281 22.13453125 7.78738281 22.13453125 7.5625 21.171875 C5.58276663 13.6170304 2.64180873 7.50078916 -3.9921875 3.078125 C-6.3711404 2.79873101 -6.3711404 2.79873101 -8.9296875 2.890625 C-9.78433594 2.89707031 -10.63898438 2.90351563 -11.51953125 2.91015625 C-13.80439418 3.06536811 -15.79841555 3.44188023 -17.9921875 4.078125 C-16.9921875 1.078125 -16.9921875 1.078125 -15.0546875 -0.109375 C-10.02840507 -1.4428785 -4.8684778 -2.25286424 0 0 Z " fill="#B15B48" transform="translate(294.9921875,209.921875)"/>
<path d="M0 0 C0.99 0 1.98 0 3 0 C2.125 5.75 2.125 5.75 1 8 C0.77141886 10.0374763 0.58975722 12.08040303 0.4375 14.125 C0.35371094 15.22070312 0.26992188 16.31640625 0.18359375 17.4453125 C0.12300781 18.28835937 0.06242187 19.13140625 0 20 C-0.99 20.33 -1.98 20.66 -3 21 C-3.66 18.36 -4.32 15.72 -5 13 C-6.98 14.32 -8.96 15.64 -11 17 C-11.66 16.34 -12.32 15.68 -13 15 C-12.39671875 14.33613281 -11.7934375 13.67226562 -11.171875 12.98828125 C-10.37265625 12.10527344 -9.5734375 11.22226563 -8.75 10.3125 C-7.96109375 9.44238281 -7.1721875 8.57226562 -6.359375 7.67578125 C-3.9659163 5.03539182 -3.9659163 5.03539182 -1.890625 2.16796875 C-1.26671875 1.45253906 -0.6428125 0.73710937 0 0 Z " fill="#F6EBD6" transform="translate(267,231)"/>
<path d="M0 0 C0.33 0 0.66 0 1 0 C1 4.29 1 8.58 1 13 C1.99 13.33 2.98 13.66 4 14 C4.10957031 15.07378906 4.21914062 16.14757812 4.33203125 17.25390625 C4.49161587 18.6901678 4.65180442 20.12636233 4.8125 21.5625 C4.88275391 22.26697266 4.95300781 22.97144531 5.02539062 23.69726562 C5.44486456 27.33829941 6.0529044 30.42794796 7.57421875 33.77734375 C9 37 9 37 9 41 C8.01 41 7.02 41 6 41 C5.18243762 38.93950145 4.37115266 36.87651147 3.5625 34.8125 C3.11003906 33.66394531 2.65757812 32.51539063 2.19140625 31.33203125 C0.50519343 26.61616393 -0.12559094 22.48077749 -0.09765625 17.48046875 C-0.09443359 16.45888672 -0.09121094 15.43730469 -0.08789062 14.38476562 C-0.07951172 13.32966797 -0.07113281 12.27457031 -0.0625 11.1875 C-0.05798828 10.11306641 -0.05347656 9.03863281 -0.04882812 7.93164062 C-0.03707729 5.28770317 -0.02064787 2.64388048 0 0 Z " fill="#B05946" transform="translate(193,225)"/>
<path d="M0 0 C0.88300781 0.00902344 1.76601562 0.01804688 2.67578125 0.02734375 C3.67158203 0.04474609 3.67158203 0.04474609 4.6875 0.0625 C4.6875 0.7225 4.6875 1.3825 4.6875 2.0625 C3.83929688 2.19785156 2.99109375 2.33320313 2.1171875 2.47265625 C-7.47101877 4.23225015 -14.79896364 7.401395 -23.3125 12.0625 C-24.64234991 12.73608847 -25.97398412 13.40630075 -27.3125 14.0625 C-27.6425 12.7425 -27.9725 11.4225 -28.3125 10.0625 C-20.16035954 3.54078764 -10.50185269 -0.1400247 0 0 Z " fill="#B15234" transform="translate(243.3125,193.9375)"/>
<path d="M0 0 C-0.99 0.33 -1.98 0.66 -3 1 C-3.73323796 3.01508358 -3.73323796 3.01508358 -4 5 C-5.32 5.33 -6.64 5.66 -8 6 C-5.525 6.99 -5.525 6.99 -3 8 C-3 8.66 -3 9.32 -3 10 C-4.43791516 9.85831863 -5.8753237 9.71148957 -7.3125 9.5625 C-8.11300781 9.48128906 -8.91351563 9.40007812 -9.73828125 9.31640625 C-12 9 -12 9 -15 8 C-15 8.66 -15 9.32 -15 10 C-15.66 10 -16.32 10 -17 10 C-17 10.66 -17 11.32 -17 12 C-17.99 12 -18.98 12 -20 12 C-20 11.01 -20 10.02 -20 9 C-20.66 8.67 -21.32 8.34 -22 8 C-6.22554325 -1.9883343 -6.22554325 -1.9883343 0 0 Z " fill="#E2A774" transform="translate(241,198)"/>
<path d="M0 0 C2.7654203 0.1929363 4.32795051 0.78924845 6.6875 2.1875 C7.0175 1.5275 7.3475 0.8675 7.6875 0.1875 C7.3575 2.4975 7.0275 4.8075 6.6875 7.1875 C6.0275 7.1875 5.3675 7.1875 4.6875 7.1875 C4.6875 8.5075 4.6875 9.8275 4.6875 11.1875 C2.0475 11.1875 -0.5925 11.1875 -3.3125 11.1875 C-3.33938151 9.54175434 -3.35884123 7.89588587 -3.375 6.25 C-3.38660156 5.33347656 -3.39820313 4.41695313 -3.41015625 3.47265625 C-3.27738651 0.36584427 -3.09443841 0.25090041 0 0 Z " fill="#612D23" transform="translate(239.3125,319.8125)"/>
<path d="M0 0 C0.66 0 1.32 0 2 0 C4.4021604 4.8043208 4.61122229 9.73103895 5 15 C5.33 12.03 5.66 9.06 6 6 C6.33 6 6.66 6 7 6 C7.91638765 14.43416044 7.91638765 14.43416044 5.69921875 18.22265625 C4.21117084 19.95220119 2.74984938 21.53613709 1 23 C0.67 23 0.34 23 0 23 C0 15.41 0 7.82 0 0 Z " fill="#BC765C" transform="translate(259,249)"/>
<path d="M0 0 C0.99 0 1.98 0 3 0 C1.64875335 3.77138991 -0.06970816 6.71424789 -2.4375 9.9375 C-6.69860887 15.92608544 -9.25727057 20.57270575 -10 28 C-10.66 28 -11.32 28 -12 28 C-13.11370406 18.49226721 -9.86161018 12.33402269 -4.37109375 4.75 C-2.8125 2.8125 -2.8125 2.8125 0 0 Z " fill="#AC4F3C" transform="translate(245,253)"/>
<path d="M0 0 C1.79133978 -0.05391993 3.58313899 -0.09275571 5.375 -0.125 C6.37273437 -0.14820313 7.37046875 -0.17140625 8.3984375 -0.1953125 C11 0 11 0 13 2 C13.27328143 5.14273643 13.40391132 7.25949592 11.875 10.0625 C10.69460607 12.10070585 10.69460607 12.10070585 11.875 14.75 C12.24625 15.4925 12.6175 16.235 13 17 C10.22589786 16.61736522 9.23112328 16.28659286 7.4375 14.0625 C6.963125 13.381875 6.48875 12.70125 6 12 C5.01 11.34 4.02 10.68 3 10 C4.65 9.67 6.3 9.34 8 9 C8.33 7.35 8.66 5.7 9 4 C4.46167247 2.18397483 4.46167247 2.18397483 0 3 C0 2.01 0 1.02 0 0 Z " fill="#56241A" transform="translate(166,318)"/>
<path d="M0 0 C3.33333333 0 6.66666667 0 10 0 C9.814375 0.78375 9.62875 1.5675 9.4375 2.375 C8.74037734 4.97089775 8.74037734 4.97089775 10 7 C9.01 7 8.02 7 7 7 C7 8.32 7 9.64 7 11 C4.69 11 2.38 11 0 11 C0 9.68 0 8.36 0 7 C1.65 6.67 3.3 6.34 5 6 C3.35 5.67 1.7 5.34 0 5 C0 3.35 0 1.7 0 0 Z " fill="#693A32" transform="translate(293,320)"/>
<path d="M0 0 C4.44236463 2.22118232 6.70776632 4.58532772 9 9 C9.25 12.875 9.25 12.875 9 16 C8.01 16.33 7.02 16.66 6 17 C3.3125 15.0625 3.3125 15.0625 1 13 C1.33 12.34 1.66 11.68 2 11 C2.99 11 3.98 11 5 11 C1.89996438 6.17078237 1.89996438 6.17078237 -2 2 C-1.34 2 -0.68 2 0 2 C0 1.34 0 0.68 0 0 Z " fill="#B05F4B" transform="translate(293,193)"/>
<path d="M0 0 C1.32 0 2.64 0 4 0 C4.05398987 2.27057377 4.09278742 4.54151288 4.125 6.8125 C4.14820313 8.07707031 4.17140625 9.34164063 4.1953125 10.64453125 C4 14 4 14 2 17 C-0.31 16.34 -2.62 15.68 -5 15 C-4.03320312 14.70996094 -4.03320312 14.70996094 -3.046875 14.4140625 C-0.65648799 13.11291753 -0.65648799 13.11291753 -0.390625 9.9609375 C-0.34421875 8.77757812 -0.2978125 7.59421875 -0.25 6.375 C-0.19328125 5.18648438 -0.1365625 3.99796875 -0.078125 2.7734375 C-0.05234375 1.85820312 -0.0265625 0.94296875 0 0 Z " fill="#511D13" transform="translate(196,317)"/>
<path d="M0 0 C0.33 0 0.66 0 1 0 C1 6.27 1 12.54 1 19 C-0.98 19.99 -0.98 19.99 -3 21 C-3.55353075 6.21867882 -3.55353075 6.21867882 0 0 Z " fill="#F5E3C9" transform="translate(256,253)"/>
<path d="M0 0 C-3.30466914 3.52691297 -6.42922907 4.82688411 -11.3203125 5.15625 C-17.52782132 5.23608934 -17.52782132 5.23608934 -20 4 C-20 3.34 -20 2.68 -20 2 C-13.24112575 -0.07965362 -7.04440079 -0.21133202 0 0 Z " fill="#F0E0CF" transform="translate(277,279)"/>
<path d="M0 0 C-1.60875 0.61875 -1.60875 0.61875 -3.25 1.25 C-5.66772992 2.28066574 -6.98833267 2.98833267 -8.875 4.875 C-12.08017172 8.08017172 -16.00504115 9.9171582 -20 12 C-20 11.34 -20 10.68 -20 10 C-21.32 10.33 -22.64 10.66 -24 11 C-20.22032095 6.79064645 -16.56844386 4.4457809 -11.4375 2.125 C-10.77814453 1.8053125 -10.11878906 1.485625 -9.43945312 1.15625 C-3.5047923 -1.58741229 -3.5047923 -1.58741229 0 0 Z " fill="#AC5338" transform="translate(241,178)"/>
<path d="M0 0 C1.04285156 -0.01417969 2.08570313 -0.02835937 3.16015625 -0.04296875 C5.9375 0.1875 5.9375 0.1875 8.9375 2.1875 C7.26102563 3.86397437 5.11165464 3.53388077 2.80859375 3.72265625 C1.77412109 3.80966797 0.73964844 3.89667969 -0.32617188 3.98632812 C-1.41478516 4.07333984 -2.50339844 4.16035156 -3.625 4.25 C-5.2637207 4.38631836 -5.2637207 4.38631836 -6.93554688 4.52539062 C-9.64422492 4.75012811 -12.35318166 4.97064089 -15.0625 5.1875 C-9.86479133 0.71169531 -6.75540158 0.04185503 0 0 Z " fill="#EBD0BA" transform="translate(274.0625,272.8125)"/>
<path d="M0 0 C0.66 0 1.32 0 2 0 C3.74675802 5.99674407 4.25682842 11.27364221 4.125 17.5 C4.11597656 18.32242188 4.10695313 19.14484375 4.09765625 19.9921875 C4.07436865 21.99492083 4.03850959 23.99750154 4 26 C3.67 26 3.34 26 3 26 C2.29688401 22.60720768 1.61529709 19.21043326 0.9375 15.8125 C0.73833984 14.85279297 0.53917969 13.89308594 0.33398438 12.90429688 C0.05844727 11.50727539 0.05844727 11.50727539 -0.22265625 10.08203125 C-0.39547119 9.22843018 -0.56828613 8.3748291 -0.74633789 7.49536133 C-1.02313876 4.77237609 -0.66418083 2.64223961 0 0 Z " fill="#A84C3B" transform="translate(305,230)"/>
<path d="M0 0 C4 1 4 1 5.25 3.0625 C5.4975 3.701875 5.745 4.34125 6 5 C5.01 5.66 4.02 6.32 3 7 C2.63539547 9.66653905 2.63539547 9.66653905 2.8125 12.625 C2.83957031 13.62789063 2.86664063 14.63078125 2.89453125 15.6640625 C2.92933594 16.43492187 2.96414063 17.20578125 3 18 C2.01 18 1.02 18 0 18 C0 12.06 0 6.12 0 0 Z " fill="#541F15" transform="translate(350,317)"/>
<path d="M0 0 C1.32 0 2.64 0 4 0 C4.8320582 5.72040011 5.12036664 11.22240116 5 17 C4.01 17 3.02 17 2 17 C2 13.7 2 10.4 2 7 C1.01 6.67 0.02 6.34 -1 6 C-0.67 4.02 -0.34 2.04 0 0 Z " fill="#5B231A" transform="translate(221,317)"/>
<path d="M0 0 C-4.42695105 3.89035092 -8.93354251 6.80426867 -14.9375 7.1875 C-15.618125 7.125625 -16.29875 7.06375 -17 7 C-16.5 5.1875 -16.5 5.1875 -15 3 C-10.86818752 0.86445647 -4.36294527 -2.18147264 0 0 Z " fill="#EDD4BE" transform="translate(290,259)"/>
<path d="M0 0 C1.17571451 3.67410785 1.07366746 7.16929183 1 11 C1.99 10.34 2.98 9.68 4 9 C3.34 12.3 2.68 15.6 2 19 C0.68 18.67 -0.64 18.34 -2 18 C-2.054138 15.75026553 -2.09285491 13.50015617 -2.125 11.25 C-2.14820313 9.99703125 -2.17140625 8.7440625 -2.1953125 7.453125 C-2.01537302 4.27179508 -1.68998582 2.63478104 0 0 Z " fill="#A13C25" transform="translate(196,220)"/>
<path d="M0 0 C3.79555331 2.53036888 4.4455386 4.78074764 6 9 C6 9.99 6 10.98 6 12 C4.68 12 3.36 12 2 12 C1.67 11.01 1.34 10.02 1 9 C-1.31 8.67 -3.62 8.34 -6 8 C-6 7.34 -6 6.68 -6 6 C-4.02 6 -2.04 6 0 6 C-0.2784375 4.7934375 -0.2784375 4.7934375 -0.5625 3.5625 C-0.706875 2.716875 -0.85125 1.87125 -1 1 C-0.67 0.67 -0.34 0.34 0 0 Z " fill="#5D2C22" transform="translate(338,323)"/>
<path d="M0 0 C3.42720102 1.50796845 6.30913432 3.58440102 9.31640625 5.78125 C10.85087948 6.89205197 12.42382152 7.94921434 14 9 C12.2578125 10.13671875 12.2578125 10.13671875 10 11 C7.9296875 10.20703125 7.9296875 10.20703125 5.875 8.8125 C5.19179687 8.36519531 4.50859375 7.91789062 3.8046875 7.45703125 C2 6 2 6 0 3 C0 2.01 0 1.02 0 0 Z " fill="#B0553E" transform="translate(234,282)"/>
<path d="M0 0 C-1.4338011 5.01830384 -3.7898897 7.13712499 -8 10 C-10.375 9.8125 -10.375 9.8125 -12 9 C-5 0 -5 0 0 0 Z " fill="#E8CBB2" transform="translate(292,242)"/>
<path d="M0 0 C0.66 0 1.32 0 2 0 C0.49198086 6.85463247 -1.99646696 10.99764464 -8 15 C-10.1875 14.625 -10.1875 14.625 -12 14 C-11.50628906 13.59007812 -11.01257813 13.18015625 -10.50390625 12.7578125 C-9.86324219 12.21898437 -9.22257812 11.68015625 -8.5625 11.125 C-7.92441406 10.59132812 -7.28632813 10.05765625 -6.62890625 9.5078125 C-4.89194996 8.0777243 -4.89194996 8.0777243 -4 6 C-3.34 6 -2.68 6 -2 6 C-1.855625 5.195625 -1.71125 4.39125 -1.5625 3.5625 C-1 1 -1 1 0 0 Z " fill="#AC553C" transform="translate(295,238)"/>
<path d="M0 0 C0.99 0 1.98 0 3 0 C2.32829194 3.8063457 1.27253436 7.35206816 0 11 C-0.99 11 -1.98 11 -3 11 C-3.99 11.495 -3.99 11.495 -5 12 C-5 9.36 -5 6.72 -5 4 C-4.34 4.66 -3.68 5.32 -3 6 C-2.01 4.02 -1.02 2.04 0 0 Z " fill="#A6472A" transform="translate(201,220)"/>
<path d="M0 0 C1.984375 1.17578125 1.984375 1.17578125 4 3 C4.390625 5.48046875 4.390625 5.48046875 4.25 8.1875 C4.21390625 9.08855469 4.1778125 9.98960937 4.140625 10.91796875 C4.09421875 11.60503906 4.0478125 12.29210937 4 13 C4.99 13.33 5.98 13.66 7 14 C5.68 14 4.36 14 3 14 C2.67 11.36 2.34 8.72 2 6 C1.01 7.98 0.02 9.96 -1 12 C-2.125 10.3125 -2.125 10.3125 -3 8 C-2.1875 5.4375 -2.1875 5.4375 -1 3 C-0.67 2.01 -0.34 1.02 0 0 Z " fill="#73443C" transform="translate(219,321)"/>
<path d="M0 0 C3.4009901 4.53465347 3.4009901 4.53465347 3.3125 9 C3.30863281 9.845625 3.30476563 10.69125 3.30078125 11.5625 C2.98576274 14.11537729 2.28396996 15.79013935 1 18 C0.67 18 0.34 18 0 18 C0 12.06 0 6.12 0 0 Z " fill="#EED7BC" transform="translate(260,250)"/>
<path d="M0 0 C1 3 1 3 0.375 5.375 C-1.27960884 8.53379869 -3.39000967 10.59606154 -6 13 C-6.99 12.34 -7.98 11.68 -9 11 C-6.03 7.37 -3.06 3.74 0 0 Z " fill="#B55D44" transform="translate(254,241)"/>
<path d="M0 0 C0.33 0 0.66 0 1 0 C1.02699725 2.27076842 1.04639453 4.54162821 1.0625 6.8125 C1.07410156 8.07707031 1.08570313 9.34164062 1.09765625 10.64453125 C1 14 1 14 0 17 C-0.66 17 -1.32 17 -2 17 C-2.05418326 14.91695462 -2.09287551 12.83350232 -2.125 10.75 C-2.14820313 9.58984375 -2.17140625 8.4296875 -2.1953125 7.234375 C-2.0103949 4.17213954 -1.60823023 2.55797249 0 0 Z " fill="#EAD5B6" transform="translate(272,235)"/>
<path d="M0 0 C0.7940625 -0.01417969 1.588125 -0.02835938 2.40625 -0.04296875 C4.5 0.1875 4.5 0.1875 6.5 2.1875 C5.84 2.1875 5.18 2.1875 4.5 2.1875 C4.17 2.8475 3.84 3.5075 3.5 4.1875 C2.82453125 4.17589844 2.1490625 4.16429687 1.453125 4.15234375 C0.56109375 4.14332031 -0.3309375 4.13429687 -1.25 4.125 C-2.13171875 4.11339844 -3.0134375 4.10179687 -3.921875 4.08984375 C-6.2818838 4.17923802 -8.24498524 4.51837179 -10.5 5.1875 C-6.91339154 1.48133793 -5.17653238 0.04201731 0 0 Z " fill="#E6D2C1" transform="translate(289.5,205.8125)"/>
<path d="M0 0 C2.375 -0.125 2.375 -0.125 5 0 C5.66 0.66 6.32 1.32 7 2 C6.75 4.5625 6.75 4.5625 6 7 C5.01 7.495 5.01 7.495 4 8 C3.01 7.67 2.02 7.34 1 7 C0.67 4.69 0.34 2.38 0 0 Z " fill="#663731" transform="translate(265,317)"/>
<path d="M0 0 C-0.08708669 1.45945288 -0.19526907 2.91765868 -0.3125 4.375 C-0.37050781 5.18710938 -0.42851562 5.99921875 -0.48828125 6.8359375 C-1 9 -1 9 -4 11 C-4.12375 10.030625 -4.2475 9.06125 -4.375 8.0625 C-4.58125 7.051875 -4.7875 6.04125 -5 5 C-5.66 4.67 -6.32 4.34 -7 4 C-3.375 0 -3.375 0 0 0 Z " fill="#E2A676" transform="translate(217,195)"/>
<path d="M0 0 C0 3.3 0 6.6 0 10 C-1.32 9.01 -2.64 8.02 -4 7 C-4.99 7.495 -4.99 7.495 -6 8 C-6 7.34 -6 6.68 -6 6 C-6.66 5.67 -7.32 5.34 -8 5 C-2.25 0 -2.25 0 0 0 Z " fill="#AF644F" transform="translate(290,223)"/>
<path d="M0 0 C0.88336837 2.4667645 1.1312406 3.63859372 0.22265625 6.140625 C-0.16019531 6.83671875 -0.54304688 7.5328125 -0.9375 8.25 C-1.31777344 8.95640625 -1.69804687 9.6628125 -2.08984375 10.390625 C-2.39019531 10.92171875 -2.69054687 11.4528125 -3 12 C-3.66 12 -4.32 12 -5 12 C-5.35338623 9.03155565 -5.5417682 6.84401782 -3.88671875 4.265625 C-2.64496832 2.79651181 -1.32662082 1.39295186 0 0 Z " fill="#E8CBAD" transform="translate(286,229)"/>
<path d="M0 0 C0.66 0.33 1.32 0.66 2 1 C2 2.65 2 4.3 2 6 C1.01 6.33 0.02 6.66 -1 7 C-1.33 7.99 -1.66 8.98 -2 10 C-2.99 10.495 -2.99 10.495 -4 11 C-4.66 11.99 -5.32 12.98 -6 14 C-5.57202798 8.29370646 -3.15654048 4.58921384 0 0 Z " fill="#B2654E" transform="translate(273,229)"/>
<path d="M0 0 C0 0.99 0 1.98 0 3 C-2.64 3.33 -5.28 3.66 -8 4 C-8 3.34 -8 2.68 -8 2 C-11.96 2 -15.92 2 -20 2 C-20 1.67 -20 1.34 -20 1 C-17.60429729 0.8312461 -15.20846637 0.66493164 -12.8125 0.5 C-12.13896484 0.45230469 -11.46542969 0.40460938 -10.77148438 0.35546875 C-7.17363248 0.10976179 -3.60627694 -0.05601984 0 0 Z " fill="#BD694E" transform="translate(275,291)"/>
<path d="M0 0 C0.66 0 1.32 0 2 0 C2 5.28 2 10.56 2 16 C1.01 16 0.02 16 -1 16 C-0.67 10.72 -0.34 5.44 0 0 Z " fill="#481108" transform="translate(362,318)"/>
<path d="M0 0 C1.65 0 3.3 0 5 0 C5.66 1.32 6.32 2.64 7 4 C5 6 5 6 2.375 6.125 C1.59125 6.08375 0.8075 6.0425 0 6 C0 4.02 0 2.04 0 0 Z " fill="#E6DFDE" transform="translate(169,320)"/>
<path d="M0 0 C3.63 0 7.26 0 11 0 C11.33 1.32 11.66 2.64 12 4 C10.54096742 3.69078116 9.08279278 3.37751201 7.625 3.0625 C6.81289062 2.88847656 6.00078125 2.71445312 5.1640625 2.53515625 C3 2 3 2 1 1 C1 3.97 1 6.94 1 10 C0.67 10 0.34 10 0 10 C0 6.7 0 3.4 0 0 Z " fill="#501810" transform="translate(234,318)"/>
<path d="M0 0 C0.33 0 0.66 0 1 0 C1 6.27 1 12.54 1 19 C0.67 19 0.34 19 0 19 C-0.33 15.37 -0.66 11.74 -1 8 C-1.99 8.495 -1.99 8.495 -3 9 C-2.69181644 7.68647977 -2.37832335 6.37420428 -2.0625 5.0625 C-1.88847656 4.33160156 -1.71445313 3.60070312 -1.53515625 2.84765625 C-1 1 -1 1 0 0 Z " fill="#EEDAC3" transform="translate(256,253)"/>
<path d="M0 0 C1.32 0.33 2.64 0.66 4 1 C3.625 3.4375 3.625 3.4375 3 6 C0.45297384 7.27351308 -0.4282945 6.80191925 -3.125 6.0625 C-3.84945313 5.86785156 -4.57390625 5.67320312 -5.3203125 5.47265625 C-5.87460937 5.31667969 -6.42890625 5.16070312 -7 5 C-7 4.67 -7 4.34 -7 4 C-4.69 4 -2.38 4 0 4 C0 2.68 0 1.36 0 0 Z " fill="#713F34" transform="translate(300,327)"/>
<path d="M0 0 C6.625 -0.25 6.625 -0.25 10 2 C9.67 2.99 9.34 3.98 9 5 C6.03 4.01 3.06 3.02 0 2 C0 1.34 0 0.68 0 0 Z " fill="#5E251C" transform="translate(149,317)"/>
<path d="M0 0 C0.33 0 0.66 0 1 0 C1 2.64 1 5.28 1 8 C1.66 8 2.32 8 3 8 C3 5.69 3 3.38 3 1 C3.33 1 3.66 1 4 1 C4 3.64 4 6.28 4 9 C0.21812119 10.83691257 -1.94568308 11.15837626 -6 10 C-3 8 -3 8 0 8 C0 5.36 0 2.72 0 0 Z " fill="#BD705D" transform="translate(232,273)"/>
<path d="M0 0 C0 0.66 0 1.32 0 2 C-5.23471686 2.75612577 -9.77254141 3.2063366 -15 2 C-15 1.67 -15 1.34 -15 1 C-10.03926578 -0.32286246 -5.08888488 -0.08893197 0 0 Z " fill="#B25D3C" transform="translate(248,194)"/>
<path d="M0 0 C1.32 0 2.64 0 4 0 C4.38133299 1.9914056 4.71325582 3.99279077 5 6 C4 7 4 7 1.4375 7.0625 C0.2309375 7.0315625 0.2309375 7.0315625 -1 7 C-0.34 6.67 0.32 6.34 1 6 C0.34 4.35 -0.32 2.7 -1 1 C-0.67 0.67 -0.34 0.34 0 0 Z " fill="#A17F76" transform="translate(265,328)"/>
<path d="M0 0 C-0.33 0.99 -0.66 1.98 -1 3 C-4.0625 4.1875 -4.0625 4.1875 -7 5 C-7.99 4.01 -8.98 3.02 -10 2 C-3.375 -1.125 -3.375 -1.125 0 0 Z " fill="#AE533B" transform="translate(237,251)"/>
<path d="M0 0 C0.33 0 0.66 0 1 0 C1.33 2.64 1.66 5.28 2 8 C2.33 6.35 2.66 4.7 3 3 C3.33 3 3.66 3 4 3 C4.07654536 7.51617599 4.10228696 11.59085217 3 16 C-0.13107836 12.61416198 -0.33550778 10.28890538 -0.1875 5.75 C-0.14689453 4.13351563 -0.14689453 4.13351563 -0.10546875 2.484375 C-0.07066406 1.66453125 -0.03585938 0.8446875 0 0 Z " fill="#B96C53" transform="translate(243,223)"/>
<path d="M0 0 C-2.42195448 2.87255066 -4.59742703 3.70838919 -8.1875 4.6875 C-9.08855469 4.93886719 -9.98960937 5.19023437 -10.91796875 5.44921875 C-11.60503906 5.63097656 -12.29210937 5.81273437 -13 6 C-11.3515625 2.15625 -11.3515625 2.15625 -8.1875 0.75 C-5.30183036 0.07101891 -2.94417035 -0.17318649 0 0 Z " fill="#A94F34" transform="translate(246,177)"/>
<path d="M0 0 C1.32 0.33 2.64 0.66 4 1 C3.625 3.4375 3.625 3.4375 3 6 C2.01 6.495 2.01 6.495 1 7 C1 6.34 1 5.68 1 5 C-1.64 5 -4.28 5 -7 5 C-7 4.67 -7 4.34 -7 4 C-4.69 4 -2.38 4 0 4 C0 2.68 0 1.36 0 0 Z " fill="#764336" transform="translate(244,327)"/>
<path d="M0 0 C0 0.66 0 1.32 0 2 C-2.88211302 2.96070434 -4.69850044 3.10581883 -7.6875 3.0625 C-8.89986328 3.04896484 -8.89986328 3.04896484 -10.13671875 3.03515625 C-11.05904297 3.01775391 -11.05904297 3.01775391 -12 3 C-12 2.34 -12 1.68 -12 1 C-7.9472484 0.01751476 -4.16138263 -0.08159574 0 0 Z " fill="#AC4A32" transform="translate(231,283)"/>
<path d="M0 0 C-1 3 -1 3 -3.21484375 4.203125 C-4.11332031 4.54859375 -5.01179688 4.8940625 -5.9375 5.25 C-7.28134766 5.78367188 -7.28134766 5.78367188 -8.65234375 6.328125 C-11 7 -11 7 -13 6 C-11.625 4.5 -11.625 4.5 -10 3 C-9.34 3 -8.68 3 -8 3 C-7.01 2.505 -6.02 2.01 -5 1.5 C-2 0 -2 0 0 0 Z " fill="#CB9680" transform="translate(298,235)"/>
<path d="M0 0 C1.98 0 3.96 0 6 0 C6.33 1.32 6.66 2.64 7 4 C4.69 4 2.38 4 0 4 C0 2.68 0 1.36 0 0 Z " fill="#E6E1E0" transform="translate(293,327)"/>
<path d="M0 0 C1.98 0 3.96 0 6 0 C6.33 1.32 6.66 2.64 7 4 C4.69 4 2.38 4 0 4 C0 2.68 0 1.36 0 0 Z " fill="#E2DBDA" transform="translate(237,327)"/>
<path d="M0 0 C0.66 0.66 1.32 1.32 2 2 C1.34 3.32 0.68 4.64 0 6 C0.66 6 1.32 6 2 6 C2 6.99 2 7.98 2 9 C0.0625 8.375 0.0625 8.375 -2 7 C-2.75 3.875 -2.75 3.875 -3 1 C-2.01 0.67 -1.02 0.34 0 0 Z " fill="#6B342B" transform="translate(273,326)"/>
<path d="M0 0 C2 2 2 2 2.1953125 4.1640625 C2.16050781 5.38222656 2.16050781 5.38222656 2.125 6.625 C2.10695313 7.44226563 2.08890625 8.25953125 2.0703125 9.1015625 C2.04710937 9.72804687 2.02390625 10.35453125 2 11 C1.34 11 0.68 11 0 11 C-0.19406478 9.35492782 -0.38007935 7.70890406 -0.5625 6.0625 C-0.66691406 5.14597656 -0.77132813 4.22945312 -0.87890625 3.28515625 C-0.91886719 2.53105469 -0.95882813 1.77695313 -1 1 C-0.67 0.67 -0.34 0.34 0 0 Z " fill="#AA543E" transform="translate(274,235)"/>
<path d="M0 0 C1.31223496 3.93670488 0.24296256 6.12488144 -1 10 C-1.33 9.34 -1.66 8.68 -2 8 C-2.66 8 -3.32 8 -4 8 C-4.25 5.6875 -4.25 5.6875 -4 3 C-2 1.1875 -2 1.1875 0 0 Z " fill="#A4472C" transform="translate(199,229)"/>
<path d="M0 0 C1.32 0.33 2.64 0.66 4 1 C3.67 2.65 3.34 4.3 3 6 C1.35 6.33 -0.3 6.66 -2 7 C-1.67 6.21625 -1.34 5.4325 -1 4.625 C0.11866511 2.15667503 0.11866511 2.15667503 0 0 Z " fill="#EFC08B" transform="translate(212,219)"/>
<path d="M0 0 C0.66 0 1.32 0 2 0 C2.33 2.31 2.66 4.62 3 7 C1.68 7.33 0.36 7.66 -1 8 C-1.93065133 5.39417629 -2.14917407 4.35801776 -1.0625 1.75 C-0.711875 1.1725 -0.36125 0.595 0 0 Z " fill="#F0BD88" transform="translate(210,200)"/>
<path d="M0 0 C3.3 0 6.6 0 10 0 C7 3 7 3 3.8125 3.1875 C2.4203125 3.0946875 2.4203125 3.0946875 1 3 C0.67 2.01 0.34 1.02 0 0 Z " fill="#532114" transform="translate(148,332)"/>
<path d="M0 0 C0.33 0 0.66 0 1 0 C1.22185844 2.26955186 1.42705515 4.54073755 1.625 6.8125 C1.74101562 8.07707031 1.85703125 9.34164063 1.9765625 10.64453125 C2 14 2 14 0 17 C-2.475 16.01 -2.475 16.01 -5 15 C-4.03320312 14.70996094 -4.03320312 14.70996094 -3.046875 14.4140625 C-0.65648799 13.11291753 -0.65648799 13.11291753 -0.390625 9.9609375 C-0.34421875 8.77757812 -0.2978125 7.59421875 -0.25 6.375 C-0.19328125 5.18648438 -0.1365625 3.99796875 -0.078125 2.7734375 C-0.05234375 1.85820312 -0.0265625 0.94296875 0 0 Z " fill="#906C65" transform="translate(196,317)"/>
<path d="M0 0 C0.66 0 1.32 0 2 0 C3.49821059 3.37097383 4 5.20442119 4 9 C3.34 9 2.68 9 2 9 C0.4375 6.1875 0.4375 6.1875 -1 3 C-0.67 2.01 -0.34 1.02 0 0 Z " fill="#58271E" transform="translate(213,324)"/>
<path d="M0 0 C-1.3125 2.5 -1.3125 2.5 -3 5 C-3.99 5 -4.98 5 -6 5 C-6 3.35 -6 1.7 -6 0 C-2.25 -1.125 -2.25 -1.125 0 0 Z " fill="#B86E45" transform="translate(225,236)"/>
<path d="M0 0 C0.66 0 1.32 0 2 0 C1.8864371 1.64666203 1.75882619 3.29236082 1.625 4.9375 C1.52058594 6.31228516 1.52058594 6.31228516 1.4140625 7.71484375 C1.27742187 8.46894531 1.14078125 9.22304687 1 10 C0.01 10.495 0.01 10.495 -1 11 C-1.0270043 9.54176788 -1.04639787 8.08339325 -1.0625 6.625 C-1.07410156 5.81289062 -1.08570313 5.00078125 -1.09765625 4.1640625 C-1 2 -1 2 0 0 Z " fill="#A4482F" transform="translate(245,221)"/>
<path d="M0 0 C3.48330216 0.64505596 6.09432866 1.98217268 9 4 C9 4.66 9 5.32 9 6 C7.35 6 5.7 6 4 6 C3.67 5.34 3.34 4.68 3 4 C2.01 3.67 1.02 3.34 0 3 C0 2.01 0 1.02 0 0 Z " fill="#EEC38B" transform="translate(220,211)"/>
<path d="M0 0 C1.65 0 3.3 0 5 0 C5.33 1.32 5.66 2.64 6 4 C4.02 4 2.04 4 0 4 C0 2.68 0 1.36 0 0 Z " fill="#DFD5D2" transform="translate(293,320)"/>
<path d="M0 0 C0.66 0 1.32 0 2 0 C2.33 0.99 2.66 1.98 3 3 C-0.625 6 -0.625 6 -4 6 C-2.84826645 3.53199953 -1.95216435 1.95216435 0 0 Z " fill="#A34F39" transform="translate(262,271)"/>
<path d="M0 0 C0.99 0 1.98 0 3 0 C3.36666667 5.5 3.36666667 5.5 1.625 7.875 C0 9 0 9 -2 9 C-1.67 7.68 -1.34 6.36 -1 5 C-0.34 5 0.32 5 1 5 C0.67 3.35 0.34 1.7 0 0 Z " fill="#F2C898" transform="translate(214,228)"/>
<path d="M0 0 C0.99 0.33 1.98 0.66 3 1 C2.67 2.98 2.34 4.96 2 7 C1.34 7 0.68 7 0 7 C-0.66 7.99 -1.32 8.98 -2 10 C-1.54177532 6.53058454 -1.10868317 3.32604951 0 0 Z " fill="#AE5A44" transform="translate(196,214)"/>
<path d="M0 0 C-0.75 4.75 -0.75 4.75 -3 7 C-3.66 7 -4.32 7 -5 7 C-4.625 4.0625 -4.625 4.0625 -4 1 C-2 0 -2 0 0 0 Z " fill="#A74D35" transform="translate(202,209)"/>
<path d="M0 0 C0.66 0.33 1.32 0.66 2 1 C1.67 2.98 1.34 4.96 1 7 C-1.31 7.33 -3.62 7.66 -6 8 C-6 7.34 -6 6.68 -6 6 C-4.02 6 -2.04 6 0 6 C-0.2784375 4.7934375 -0.2784375 4.7934375 -0.5625 3.5625 C-0.706875 2.716875 -0.85125 1.87125 -1 1 C-0.67 0.67 -0.34 0.34 0 0 Z " fill="#521A10" transform="translate(338,323)"/>
<path d="M0 0 C1.65 0 3.3 0 5 0 C5 1.32 5 2.64 5 4 C3.35 4 1.7 4 0 4 C0 2.68 0 1.36 0 0 Z " fill="#E0D6D4" transform="translate(237,320)"/>
<path d="M0 0 C3.02419525 0.58803797 6.01758453 1.22678118 9 2 C8.67 2.66 8.34 3.32 8 4 C4.7 3.67 1.4 3.34 -2 3 C-1.34 2.01 -0.68 1.02 0 0 Z " fill="#B46851" transform="translate(257,276)"/>
<path d="M0 0 C0 0.33 0 0.66 0 1 C-0.60328125 1.13277344 -1.2065625 1.26554687 -1.828125 1.40234375 C-2.62734375 1.57894531 -3.4265625 1.75554687 -4.25 1.9375 C-5.03890625 2.11152344 -5.8278125 2.28554688 -6.640625 2.46484375 C-8.76878703 2.947556 -10.88532842 3.46163178 -13 4 C-11.4187874 1.4201268 -10.53351447 0.18251811 -7.625 -0.8125 C-4.86721466 -1.00948467 -2.66855898 -0.68620088 0 0 Z " fill="#EBD8C7" transform="translate(288,255)"/>
<path d="M0 0 C0 1.32 0 2.64 0 4 C-1.65 4.33 -3.3 4.66 -5 5 C-5.66 4.01 -6.32 3.02 -7 2 C-2.25 0 -2.25 0 0 0 Z " fill="#B65D42" transform="translate(263,205)"/>
<path d="M0 0 C1.98 0.495 1.98 0.495 4 1 C3.67 2.32 3.34 3.64 3 5 C1.68 5 0.36 5 -1 5 C-0.67 3.35 -0.34 1.7 0 0 Z " fill="#52211A" transform="translate(334,317)"/>
<path d="M0 0 C2.25 0.25 2.25 0.25 4 1 C2.35 2.65 0.7 4.3 -1 6 C-1.99 5.34 -2.98 4.68 -4 4 C-2.25 1.9375 -2.25 1.9375 0 0 Z " fill="#EDD9C8" transform="translate(258,242)"/>
<path d="M0 0 C0.99 0 1.98 0 3 0 C2.34 2.31 1.68 4.62 1 7 C0.01 6.67 -0.98 6.34 -2 6 C-1.34 4.02 -0.68 2.04 0 0 Z " fill="#CD8B5C" transform="translate(215,213)"/>
<path d="M0 0 C1.32 0.66 2.64 1.32 4 2 C2.68 3.32 1.36 4.64 0 6 C-0.66 4.68 -1.32 3.36 -2 2 C-1.34 1.34 -0.68 0.68 0 0 Z " fill="#F5D39A" transform="translate(217,197)"/>
<path d="M0 0 C0.99 0 1.98 0 3 0 C3.66 1.98 4.32 3.96 5 6 C3.68 5.67 2.36 5.34 1 5 C0.67 3.35 0.34 1.7 0 0 Z " fill="#4F150E" transform="translate(261,328)"/>
<path d="M0 0 C1.231394 3.69418201 0.64432764 6.2056261 0 10 C-0.66 10 -1.32 10 -2 10 C-2.1953125 3.9453125 -2.1953125 3.9453125 -2 2 C-1.34 1.34 -0.68 0.68 0 0 Z " fill="#A43D2E" transform="translate(235,271)"/>
<path d="M0 0 C0.66 0 1.32 0 2 0 C0.375 6.75 0.375 6.75 -3 9 C-2.5020163 5.26512223 -2.12508244 3.18762365 0 0 Z " fill="#A34C35" transform="translate(295,238)"/>
<path d="M0 0 C1.65 0 3.3 0 5 0 C4.67 1.32 4.34 2.64 4 4 C2.35 3.67 0.7 3.34 -1 3 C-0.67 2.01 -0.34 1.02 0 0 Z " fill="#E1A770" transform="translate(215,224)"/>
<path d="M0 0 C2.31 0 4.62 0 7 0 C7.33 0.99 7.66 1.98 8 3 C6.02 3.33 4.04 3.66 2 4 C2 3.34 2 2.68 2 2 C1.34 2 0.68 2 0 2 C0 1.34 0 0.68 0 0 Z " fill="#F3C38E" transform="translate(227,206)"/>
<path d="M0 0 C2.64 0 5.28 0 8 0 C7.67 0.99 7.34 1.98 7 3 C4.69 3 2.38 3 0 3 C0 2.01 0 1.02 0 0 Z " fill="#F8F7F6" transform="translate(314,321)"/>
<path d="M0 0 C1.65 0 3.3 0 5 0 C5.33 0.66 5.66 1.32 6 2 C5.01 2.495 5.01 2.495 4 3 C3.67 3.99 3.34 4.98 3 6 C2.34 6 1.68 6 1 6 C0.67 4.02 0.34 2.04 0 0 Z " fill="#96706C" transform="translate(265,317)"/>
<path d="M0 0 C0.804375 0.4640625 0.804375 0.4640625 1.625 0.9375 C4.3984957 2.17827439 7.00042837 2.5909675 10 3 C10 3.33 10 3.66 10 4 C8.5629191 4.05422947 7.12524538 4.09289723 5.6875 4.125 C4.88699219 4.14820313 4.08648437 4.17140625 3.26171875 4.1953125 C1 4 1 4 -2 2 C-1.34 2 -0.68 2 0 2 C0 1.34 0 0.68 0 0 Z " fill="#B46C53" transform="translate(258,283)"/>
<path d="M0 0 C0.66 0.99 1.32 1.98 2 3 C0.35 5.31 -1.3 7.62 -3 10 C-3.66 9.34 -4.32 8.68 -5 8 C-3.35 5.36 -1.7 2.72 0 0 Z " fill="#E4D2C3" transform="translate(275,250)"/>
<path d="M0 0 C0.99 0 1.98 0 3 0 C2.67 1.98 2.34 3.96 2 6 C1.34 5.34 0.68 4.68 0 4 C-0.99 4 -1.98 4 -3 4 C-1.6875 2 -1.6875 2 0 0 Z " fill="#F1E4D4" transform="translate(267,231)"/>
<path d="M0 0 C1.485 0.99 1.485 0.99 3 2 C3 2.66 3 3.32 3 4 C3.66 4 4.32 4 5 4 C4.67 4.99 4.34 5.98 4 7 C3.34 7 2.68 7 2 7 C1.01 7.495 1.01 7.495 0 8 C0 5.36 0 2.72 0 0 Z " fill="#BA694A" transform="translate(196,224)"/>
<path d="M0 0 C2.475 0.495 2.475 0.495 5 1 C5.33 1.99 5.66 2.98 6 4 C5.34 4.66 4.68 5.32 4 6 C2.62437146 4.71034824 1.29233607 3.37310707 0 2 C0 1.34 0 0.68 0 0 Z " fill="#F3EAE3" transform="translate(294,208)"/>
<path d="M0 0 C0.99 0.33 1.98 0.66 3 1 C1.1875 3 1.1875 3 -1 5 C-1.99 5 -2.98 5 -4 5 C-2.25 1.125 -2.25 1.125 0 0 Z " fill="#EFC18B" transform="translate(218,207)"/>
<path d="M0 0 C0.66 0.33 1.32 0.66 2 1 C2 2.65 2 4.3 2 6 C-1 6 -1 6 -3 5 C-3 4.34 -3 3.68 -3 3 C-2.01 3 -1.02 3 0 3 C0 2.01 0 1.02 0 0 Z " fill="#F5CC94" transform="translate(231,187)"/>
<path d="M0 0 C1.65 0 3.3 0 5 0 C5.33 1.32 5.66 2.64 6 4 C3.03 3.505 3.03 3.505 0 3 C0 2.01 0 1.02 0 0 Z " fill="#F8CB93" transform="translate(238,185)"/>
<path d="M0 0 C-1.7015625 0.680625 -1.7015625 0.680625 -3.4375 1.375 C-7.04721692 2.57095806 -7.04721692 2.57095806 -8 5 C-8.66 5 -9.32 5 -10 5 C-10.33 4.01 -10.66 3.02 -11 2 C-3.57142857 -1.57142857 -3.57142857 -1.57142857 0 0 Z " fill="#B8674C" transform="translate(241,178)"/>
<path d="M0 0 C0.66 0 1.32 0 2 0 C1.75 1.875 1.75 1.875 1 4 C-1.0625 5.25 -1.0625 5.25 -3 6 C-2.42655063 3.13275314 -2.1385485 2.1385485 0 0 Z " fill="#B54831" transform="translate(299,275)"/>
<path d="M0 0 C0.33 0 0.66 0 1 0 C1.36923077 5.53846154 1.36923077 5.53846154 -0.5 7.875 C-1.2425 8.431875 -1.2425 8.431875 -2 9 C-1.125 1.125 -1.125 1.125 0 0 Z " fill="#DCBFA3" transform="translate(272,235)"/>
<path d="M0 0 C-0.66 1.98 -1.32 3.96 -2 6 C-2.33 5.34 -2.66 4.68 -3 4 C-4.32 4.33 -5.64 4.66 -7 5 C-2.25 0 -2.25 0 0 0 Z " fill="#B25B40" transform="translate(224,184)"/>
<path d="M0 0 C2.475 0.495 2.475 0.495 5 1 C4.67 2.65 4.34 4.3 4 6 C2.62437146 4.71034824 1.29233607 3.37310707 0 2 C0 1.34 0 0.68 0 0 Z " fill="#542114" transform="translate(357,327)"/>
<path d="M0 0 C0.763125 0.0825 1.52625 0.165 2.3125 0.25 C-0.08259338 3.14932357 -1.99995243 3.75168276 -5.6875 4.25 C-3.34903846 0.31153846 -3.34903846 0.31153846 0 0 Z " fill="#A94F36" transform="translate(279.6875,257.75)"/>
<path d="M0 0 C-1.07401108 2.91517292 -1.77810176 4.77810176 -4 7 C-4 6.34 -4 5.68 -4 5 C-4.66 4.67 -5.32 4.34 -6 4 C-2.25 0 -2.25 0 0 0 Z " fill="#F4E5D9" transform="translate(256,247)"/>
<path d="M0 0 C1.25541557 3.76624671 0.37061958 5.37188934 -1 9 C-1.99 8.01 -2.98 7.02 -4 6 C-2.68 4.02 -1.36 2.04 0 0 Z " fill="#E2A574" transform="translate(209,200)"/>
</svg>
